# xmcd CD database file
#
# Track frame offsets:
#	150
#	13027
#	37672
#	50177
#	60195
#	84642
#	110342
#	134002
#	148600
#	160742
#	172102
#	182225
#	194515
#	210615
#	238252
#	251190
#	276057
#
# Disc length: 4030 seconds
#
# Revision: 0
# Processed by: cddbd v1.5.2PL0 Copyright (c) Steve Scherf et al.
# Submitted via: CdAid (MTCDDB.DLL V2003.12.21)
#
DISCID=fb0fbc11
DTITLE=Marco Antonio - Sapore D'Italia - Una Festa Italiana
DYEAR=2000
DGENRE=Country
TTITLE0=Tarantella Siciliana
TTITLE1=Guaglione - Lazzarella - L'Hai Voluto Te
TTITLE2=Tarantella calabreza
TTITLE3=Tarantella Luciana
TTITLE4=Maliziusella - Mamma - Reginalla Campagnolia
TTITLE5=Na Sera' e Maggio - Anema' e Core - Malafemmena
TTITLE6=Torna a Surriento - Vurria - O' Sole Mio
TTITLE7=O' Piscatore e Polignano A Mare
TTITLE8=Calabrizella Mia
TTITLE9=La Romanina
TTITLE10=Bella Ragazza Dalle Treccie Bionde
TTITLE11=Marechiare
TTITLE12=Quell Mazzolin Di Fiore
TTITLE13=Santa Lucia - O' Marenariello - Maria Mari
TTITLE14=Dove Sta Zaza?
TTITLE15=Scapricciatiello - Chella Lá - O' Surdato Nnammurato
TTITLE16=Douje Paravise - Funiculi Funicula - Comme Facette Mammeta
EXTD=ID3G:   2 YEAR: 2000
EXTT0=
EXTT1=
EXTT2=
EXTT3=
EXTT4=
EXTT5=
EXTT6=
EXTT7=
EXTT8=
EXTT9=
EXTT10=
EXTT11=
EXTT12=
EXTT13=
EXTT14=
EXTT15=
EXTT16=
PLAYORDER=
